<?xml version="1.0" encoding="UTF-8"?>
<svg id="Capa_1" data-name="Capa 1" xmlns="http://www.w3.org/2000/svg" viewBox="0 0 115.3 39.69">
  <defs>
    <style>
      .cls-1 {
        fill: #fff;
        stroke-width: 0px;
      }
    </style>
  </defs>
  <path class="cls-1" d="M2.77,21.48c.32,0,.64-.04.96-.12,1.23-.36,2.34-.95,3.32-1.77,1.6-1.21,3.02-2.58,4.28-4.11.58-.76,1.31-1.14,2.17-1.13.11,0,.23,0,.35.02s.25.02.38.02l.52-.02c.2,0,.42.02.64.05l-.67,1.5c-.44.92-.81,1.87-1.09,2.84-.03.12-.04.24-.04.36,0,.34.13.7.37,1.08.25.37.62.61,1.09.71h.09c.17,0,.26-.06.26-.21v-.1s-.02-.24-.02-.24c0-.28.06-.55.18-.8l.06-.16c.49-1.28,1.15-2.81,2.02-4.61.1-.25.27-.36.49-.36h.11c.5.06,1,.09,1.5.12.05,0,.11.02.19.02.04,0,.07,0,.13-.02s.1-.05.15-.13c.02-.05.03-.09.03-.13,0-.1-.05-.22-.15-.34v-.02c-.29-.4-.65-.7-1.1-.9-.24-.08-.35-.16-.35-.24,0-.08.07-.26.22-.56l.1-.19.7-1.5c.59-1.26,1.17-2.51,1.75-3.78.5-1.07.93-2.16,1.26-3.29.08-.26.12-.51.12-.74,0-.69-.35-1.23-1.07-1.63-.2-.14-.41-.2-.63-.2-.13,0-.26.03-.41.07-1.92.66-3.8,1.41-5.64,2.28-1.72.77-3.32,1.72-4.83,2.84-.68.52-1.28,1.12-1.77,1.82-.41.56-.62,1.19-.64,1.89,0,.39.15.77.43,1.1s.6.56.98.65c.06.02.13.03.17.03.15,0,.23-.08.23-.26v-.07c0-.92.31-1.7.93-2.37.47-.56,1-1.04,1.59-1.46,1.76-1.25,3.64-2.3,5.64-3.13h0c.06-.04.12-.05.18-.05.04,0,.08.02.12.05v.04c0,.06-.03.13-.09.19-.79.97-1.57,1.95-2.35,2.92-1.35,1.7-2.73,3.39-4.13,5.05-.21.25-.47.36-.78.36h-.02c-1.05.04-2.09.14-3.12.29-1.18.13-2.31.42-3.41.87-.45.18-.84.45-1.18.81-.25.25-.37.53-.37.83,0,.14.03.28.08.44.26.56.7.92,1.3,1.11.06.02.12.03.16.03s.09,0,.16-.03.1-.1.11-.24c.09-.54.38-.92.87-1.15,1.28-.63,2.63-1,4.04-1.11v.08c0,.07-.02.14-.08.2-1.39,1.56-2.94,2.92-4.66,4.09-.96.69-2.04,1.06-3.22,1.11-.23,0-.34.06-.34.19,0,.05.03.13.07.21.32.6.86.9,1.62.91ZM16.51,9.35c1.56-1.95,2.48-3.04,2.76-3.28,0,.16-.06.31-.14.45-.02.03-.04.06-.05.1-.91,1.89-1.79,3.78-2.67,5.67-.14.32-.36.48-.68.48h-.13c-.23-.02-.46-.03-.7-.03h-.48s-.53,0-.53,0c.15-.27,1.01-1.41,2.61-3.4Z"/>
  <path class="cls-1" d="M25.86,23.36c.05.02.11.03.15.03s.1,0,.16-.04.09-.11.11-.26c.02-.15.07-.26.17-.36.1-.08.21-.16.34-.24.36-.2.72-.34,1.1-.44,2.02-.51,4.05-.76,6.1-.75.79,0,1.59.05,2.39.12.48.01.95.14,1.38.39,0,0,.03.02.05.03.17.15.33.21.46.21.08,0,.17-.02.26-.07.05-.04.07-.09.07-.15,0-.16-.11-.38-.34-.64-.61-.64-1.34-1.04-2.2-1.2-1.12-.19-2.24-.29-3.37-.29-.74,0-1.73.05-3,.17l-.48.04c.05-.54.18-1.03.37-1.47.03-.05.05-.1.06-.15.72-1.82,1.54-3.6,2.45-5.34.1-.2.49-.98,1.18-2.34.8-1.52,1.56-3.07,2.28-4.63.38-.76.69-1.56.92-2.38.06-.18.09-.36.09-.55,0-.23-.04-.45-.14-.67-.45-.78-1.07-1.19-1.85-1.19-.45,0-.93.13-1.45.39-2.85,1.42-5.3,3.33-7.38,5.75-.37.43-.68.9-.9,1.43-.07.22-.11.44-.11.65,0,.34.12.71.34,1.14s.63.73,1.18.89c.08.02.15.03.21.03.15,0,.24-.06.24-.19,0-.06-.02-.14-.05-.23-.07-.16-.12-.31-.12-.46,0-.21.07-.46.22-.72.27-.52.61-1,1.01-1.44,1.75-1.92,3.75-3.53,6.03-4.83.09-.06.16-.1.22-.1s.12.02.19.07c-.38.88-.62,1.41-.71,1.59l-4.05,8.12c-.72,1.39-1.34,2.84-1.84,4.33-.22.63-.33,1.14-.33,1.55,0,.33.07.66.23.99l-1.42.41c-.45.12-.86.32-1.23.59-.26.21-.4.45-.4.7,0,.11.03.22.07.34.26.58.71.97,1.34,1.16Z"/>
  <path class="cls-1" d="M34.41,17.23c0,.6.24,1.13.75,1.6.31.3.63.45.97.45.26,0,.54-.09.81-.27.58-.39,1.1-.85,1.56-1.38l.89-.98c.04.16.05.31.05.45,0,.08,0,.15-.02.22s0,.13,0,.19c0,.44.12.78.37,1.06.23.25.5.45.82.62.18.09.36.14.52.14.08,0,.2-.03.36-.07.18-.06.49-.27.91-.63,1.32-1.25,2.53-2.59,3.64-4.02.09-.11.13-.21.13-.31,0-.11-.05-.22-.15-.32-.15-.18-.29-.26-.45-.27-.16,0-.33.11-.5.33-.92,1.18-1.94,2.33-3.03,3.43-.18.21-.37.36-.58.45-.03-.05-.05-.1-.05-.15,0-.05,0-.12.04-.18.43-1.59,1.06-3.1,1.9-4.51.23-.46.54-.84.95-1.14.14-.09.2-.2.2-.33,0-.07-.03-.16-.07-.24-.23-.42-.55-.73-.96-.94-.15-.08-.3-.13-.45-.13-.27,0-.53.14-.78.45-.1.14-.22.24-.37.32-.69-.52-1.32-.78-1.89-.78-.07,0-.27.02-.62.05-.34.04-.78.28-1.31.73-1.77,1.45-2.95,3.28-3.54,5.51-.06.23-.09.45-.09.66ZM36.44,17.43c.6-1.79,1.57-3.32,2.94-4.59.57-.55,1.2-.83,1.88-.83h.11s-.22.32-.22.32c-1.34,2.12-2.92,4.04-4.72,5.74-.05-.1-.08-.19-.08-.28s.03-.22.09-.36Z"/>
  <path class="cls-1" d="M114.17,14.11c-.15-.18-.29-.26-.45-.27-.16,0-.33.11-.5.33-.92,1.18-1.94,2.33-3.03,3.43-.18.21-.37.36-.58.45-.03-.05-.05-.1-.05-.15,0-.05,0-.12.04-.18.43-1.59,1.06-3.1,1.9-4.51.23-.46.54-.84.95-1.14.14-.09.2-.2.2-.33,0-.07-.03-.16-.07-.24-.23-.42-.55-.73-.96-.94-.15-.08-.3-.13-.45-.13-.27,0-.53.14-.78.45-.1.14-.22.24-.37.32-.69-.52-1.32-.78-1.89-.78-.07,0-.27.02-.62.05-.34.04-.78.28-1.31.73-.9.74-1.65,1.57-2.24,2.51h-.07c-.06,0-.17.09-.35.26l-3.24,3.22c-.12.15-.27.26-.47.35,0-.23.08-.45.2-.66.63-1.43,1.34-2.81,2.1-4.13.21-.36.43-.7.67-1.04.17-.22.26-.39.27-.52,0-.13-.09-.29-.27-.48-.15-.16-.31-.31-.48-.45-.28-.21-.52-.32-.72-.32-.03,0-.09,0-.21.03s-.29.2-.51.55c-.58.9-1.1,1.83-1.56,2.79-.22.46-1.36,1.72-3.41,3.76-.15.17-.29.28-.45.33v-.08c0-.13.04-.27.13-.43.58-1.34,1.26-2.7,2.06-4.09.29-.54.58-.96.84-1.24.1-.1.15-.19.15-.29s-.03-.19-.09-.29c-.14-.23-.31-.43-.52-.58-.34-.28-.62-.43-.86-.43-.02,0-.1,0-.25.03s-.41.34-.79.96c-.57.95-1.09,1.93-1.58,2.93-.1.05-.21.13-.32.27-.74.9-1.55,1.73-2.46,2.5-.11.12-.21.17-.3.17h-.04c0-.19.06-.36.14-.49.03-.05.66-1.59,1.9-4.62.09-.2.14-.36.14-.49,0-.12-.04-.25-.12-.36-.28-.41-.65-.71-1.09-.9-.12-.05-.21-.07-.29-.07-.05,0-.1,0-.16.04-.08.04-.21.25-.37.67-.07.22-.17.43-.29.62-.07,0-.14-.03-.18-.06-.05-.03-.09-.06-.12-.1s-.06-.06-.09-.09c-.51-.39-1.06-.59-1.62-.59-.34,0-.67.06-1.03.2-.41.15-.78.39-1.1.7-.86.8-1.54,1.71-2.05,2.72-.03.03-.05.05-.09.1-.94,1.12-1.97,2.18-3.08,3.18-.17.18-.37.31-.58.38.59-1.46,1.47-3.34,2.65-5.65.15-.26.22-.49.22-.67,0-.04,0-.11-.03-.21-.02-.11-.16-.29-.45-.54-.19-.18-.4-.33-.64-.44-.16-.08-.29-.12-.39-.12-.04,0-.08,0-.15.03-.06.03-.15.15-.25.36-.58,1.12-1.14,2.26-1.67,3.41-.07.03-.16.09-.29.23-1.02,1.07-2.07,2.12-3.15,3.14l-.11.12c-.12.14-.27.25-.46.33-.03-.05-.04-.11-.04-.16,0-.06.02-.14.06-.22,1.08-2.81,2.32-5.55,3.7-8.21.14-.28.34-.42.62-.42.14,0,.36.02.66.02.12,0,.24-.02.36-.02.47,0,.96.1,1.46.26.01.02.02.04.04.06.15.17.33.33.53.47.26.2.47.3.63.3.03,0,.09,0,.18-.05.1-.03.23-.32.39-.86.14-.59.41-1.1.81-1.54.13-.11.19-.21.19-.31s-.04-.19-.1-.29c-.3-.47-.72-.8-1.26-.99-.08-.03-.15-.04-.22-.04-.23,0-.41.12-.55.36-.46.76-.77,1.51-.92,2.27,0,.03.02.05.02.07-.12-.12-.26-.22-.4-.27-.33-.12-.67-.18-1.05-.19-.24,0-.47-.04-.7-.07.11-.17.21-.36.3-.53.27-.58.65-1.06,1.15-1.41.13-.08.2-.15.21-.24,0-.1-.03-.2-.07-.29-.18-.3-.42-.56-.71-.75-.33-.25-.6-.37-.83-.37-.03,0-.1,0-.23.03-.14.02-.33.21-.58.56-.51.67-1.05,1.57-1.62,2.68-.12.27-.34.41-.66.41h-.49c-.08,0-.17,0-.26,0-.45,0-.87-.09-1.29-.28h-.04s-.11,0-.19.04c.19.41.45.67.78.79.32.12.67.18,1.03.19.14,0,.26.03.39.05v.1c0,.13-.05.28-.17.46-.74,1.5-1.42,3.01-2.05,4.51h-.07c-.06,0-.33.28-.78.86-.16.21-.65.79-1.46,1.75-.16.17-.31.35-.47.54h0s-.11-.1-.11-.1l.34-.91c.38-.97.7-1.98.96-2.99.05-.18.07-.36.07-.53,0-.52-.23-.97-.67-1.33-.46-.4-.8-.6-1.02-.6-.02,0-.05,0-.12,0s-.17.11-.33.3c-.36.39-.88,1.08-1.56,2.09-.28.41-.58.82-.87,1.23-.03.03-.05.06-.06.1-.06.17-.18.25-.37.25.37-.85.73-1.68,1.1-2.53.12-.26.17-.46.17-.63,0-.05,0-.12-.03-.23-.03-.1-.16-.27-.43-.51-.2-.21-.43-.37-.69-.48-.14-.05-.25-.08-.34-.08-.04,0-.09,0-.16.04-.06.03-.14.13-.22.32-.53,1.18-1.04,2.34-1.51,3.48-.24-.27-.52-.49-.85-.65-.24-.08-.35-.16-.35-.24,0-.08.07-.26.22-.56l.1-.19.7-1.5c.59-1.26,1.17-2.51,1.75-3.78.5-1.07.93-2.16,1.26-3.29.08-.26.12-.51.12-.74,0-.69-.35-1.23-1.07-1.63-.2-.14-.41-.2-.63-.2-.13,0-.26.03-.41.07-1.92.66-3.8,1.41-5.64,2.28-1.72.77-3.32,1.72-4.83,2.84-.68.52-1.28,1.12-1.77,1.82-.41.56-.62,1.19-.64,1.89,0,.39.15.77.43,1.1s.6.56.98.65c.06.02.13.03.17.03.15,0,.23-.08.23-.26v-.07c0-.92.31-1.7.93-2.37.47-.56,1-1.04,1.59-1.46,1.76-1.25,3.64-2.3,5.64-3.13h0c.06-.04.12-.05.18-.05.04,0,.08.02.12.05v.04c0,.06-.03.13-.09.19-.79.97-1.57,1.95-2.35,2.92-1.35,1.7-2.73,3.39-4.13,5.05-.21.25-.47.36-.78.36h-.02c-1.05.04-2.09.14-3.12.29-1.18.13-2.31.42-3.41.87-.45.18-.84.45-1.18.81-.25.25-.37.53-.37.83,0,.14.03.28.08.44.26.56.7.92,1.3,1.11.06.02.12.03.16.03s.09,0,.16-.03.1-.1.11-.24c.09-.54.38-.92.87-1.15,1.28-.63,2.63-1,4.04-1.11v.08c0,.07-.02.14-.08.2-1.39,1.56-2.94,2.92-4.66,4.09-.96.69-2.04,1.06-3.22,1.11-.23,0-.34.06-.34.19,0,.05.03.13.07.21.32.6.86.9,1.62.91.32,0,.64-.04.96-.12,1.23-.36,2.34-.95,3.32-1.77,1.6-1.21,3.02-2.58,4.28-4.11.58-.76,1.31-1.14,2.17-1.13.11,0,.23,0,.35.02s.25.02.38.02l.52-.02c.2,0,.42.02.64.05l-.67,1.5c-.44.92-.81,1.87-1.09,2.84-.03.12-.04.24-.04.36,0,.34.13.7.37,1.08.25.37.62.61,1.09.71h.09c.17,0,.26-.06.26-.21v-.1s-.02-.24-.02-.24c0-.28.06-.55.18-.8l.06-.16c.49-1.28,1.15-2.81,2.02-4.61.1-.25.27-.36.49-.36h.11c.42.05.84.08,1.26.1-.36.88-.72,1.76-1.04,2.61-.09.2-.14.4-.14.57,0,.35.16.66.5.91.08.06.15.13.23.21.26.29.51.45.75.45.21,0,.41-.14.58-.41.35-.47,1.33-1.93,2.97-4.37.57-.83.86-1.27.88-1.3.08-.17.25-.34.48-.5l-.28.89c-.74,1.99-1.21,3.22-1.38,3.67-.06.15-.08.29-.08.43,0,.28.12.54.34.76.48.51.86.77,1.15.77.21,0,.47-.14.77-.42.76-.71,1.46-1.46,2.14-2.23-.09.28-.19.55-.27.83-.03.12-.05.24-.05.36,0,.34.13.64.39.89.12.13.25.25.39.35.3.26.56.38.78.38.25,0,.62-.22,1.13-.64.83-.73,1.63-1.49,2.42-2.27-.06.15-.14.3-.2.45-.1.25-.15.48-.15.7,0,.45.2.82.6,1.14.15.12.31.24.47.36s.33.17.5.17c.15,0,.33-.05.51-.16.15-.09.28-.18.4-.26.93-.73,1.81-1.52,2.64-2.36-.01.1-.02.2-.02.3,0,.68.3,1.28.9,1.77.28.25.57.37.87.37.24,0,.48-.07.74-.24.5-.32.94-.71,1.32-1.16.34-.38.65-.75.93-1.08.05.05.08.08.1.09-.35.76-.58,1.27-.68,1.54-.33.9-.92,1.58-1.79,2.05-1.03.56-2.01,1.23-2.91,1.99-.5.39-.92.86-1.24,1.42-.16.3-.24.64-.24.99,0,.17.04.45.11.82.06.37.34.75.8,1.11.46.36.92.54,1.37.54.51,0,1.02-.23,1.51-.7.57-.55,1.06-1.16,1.47-1.83,1-1.57,1.88-3.2,2.63-4.89.18-.43.47-.76.86-1.03.86-.59,1.65-1.22,2.37-1.89-.16.48-.24.8-.24.97,0,.34.14.63.41.89l.16.16c.41.43.74.65.98.65.33,0,1.1-.62,2.32-1.85.14-.13.22-.22.26-.26.1-.14.22-.2.35-.2-.06.4-.1.7-.1.9s.04.35.11.46c.05.08.25.29.58.61.29.3.56.45.81.45.23,0,.5-.13.82-.39l.2-.16c.97-.87,1.91-1.77,2.83-2.68-.04.13-.09.26-.12.4-.06.23-.09.45-.09.66,0,.6.24,1.13.75,1.6.31.3.63.45.97.45.26,0,.54-.09.81-.27.58-.39,1.1-.85,1.56-1.38l.89-.98c.04.16.05.31.05.45,0,.08,0,.15-.02.22s0,.13,0,.19c0,.44.12.78.37,1.06.23.25.5.45.82.62.18.09.36.14.52.14.08,0,.2-.03.36-.07.18-.06.49-.27.91-.63,1.32-1.25,2.53-2.59,3.64-4.02.09-.11.13-.21.13-.31,0-.11-.05-.22-.15-.32ZM63.65,12.4c-.14.32-.36.48-.68.48h-.13c-.23-.02-.46-.03-.7-.03h-.48s-.53,0-.53,0c.15-.27,1.01-1.41,2.61-3.4,1.56-1.95,2.48-3.04,2.76-3.28,0,.16-.06.31-.14.45-.02.03-.04.06-.05.1-.91,1.89-1.79,3.78-2.67,5.67ZM86.6,21.64c-.61,1.17-1.37,2.25-2.28,3.22-.25.26-.49.45-.76.55-.1.06-.19.09-.27.09-.15,0-.24-.09-.24-.27.03-.89.68-1.79,1.95-2.69.38-.27.73-.51,1.04-.7s.49-.28.55-.28c.03,0,.04,0,.04.02,0,.02,0,.04-.03.06ZM89.41,14.03c-.58.83-1.18,1.6-1.81,2.34-.63.74-1.12,1.21-1.48,1.41-.03-.07-.04-.15-.04-.22,0-.09.02-.22.07-.38.48-1.66,1.32-3.09,2.53-4.3.39-.42.88-.7,1.45-.84.06,0,.13-.02.19-.02s.12.02.17.06c-.16.46-.52,1.11-1.1,1.94ZM109.3,12.48c-1.34,2.12-2.92,4.04-4.72,5.74-.05-.1-.08-.19-.08-.28s.03-.22.09-.36c.6-1.79,1.57-3.32,2.94-4.59.57-.55,1.2-.83,1.88-.83h.11s-.22.32-.22.32Z"/>
  <path class="cls-1" d="M1.92,24.61v3.8c0,.4.09.71.29.93.2.22.49.33.87.33s.67-.11.87-.32c.2-.22.3-.53.3-.93v-3.8s-.73,0-.73,0v3.85c0,.32-.14.48-.42.48s-.41-.16-.4-.49v-3.85s-.78,0-.78,0Z"/>
  <path class="cls-1" d="M9.26,29.39c0,.07.03.15.06.23h.8c-.04-.08-.06-.17-.07-.26,0-.09-.01-.2-.01-.35v-.77c0-.28-.04-.5-.12-.68-.08-.18-.21-.31-.4-.38.34-.16.51-.5.52-1.01v-.39c0-.39-.09-.68-.28-.87-.19-.19-.48-.28-.88-.28h-1.18s-.01,4.99-.01,4.99h.78s0-2.03,0-2.03h.27c.18,0,.31.05.39.15.08.1.12.26.12.49v.78c0,.19,0,.31.01.38ZM9.24,26.34c0,.19-.04.33-.12.41-.08.08-.2.12-.35.12h-.31s0-1.53,0-1.53h.38c.14,0,.24.04.3.12.06.08.1.21.1.39v.49Z"/>
  <path class="cls-1" d="M15.66,26.6c.08-.17.13-.38.13-.63v-.18c0-.39-.09-.68-.28-.87-.19-.19-.48-.28-.88-.28h-1.18s-.01,4.99-.01,4.99h1.23c.39,0,.69-.1.89-.3.2-.2.3-.49.3-.88v-.41c0-.56-.19-.92-.58-1.07.17-.08.3-.2.38-.37ZM14.23,25.35h.38c.14,0,.24.04.3.12.06.08.1.21.1.39v.28c0,.19-.04.33-.12.41-.08.08-.2.12-.35.12h-.31s0-1.32,0-1.32ZM15.08,28.42c0,.18-.03.31-.1.38s-.17.11-.31.11h-.45s0-1.53,0-1.53h.35c.18,0,.31.05.39.13.08.09.12.25.12.47v.43Z"/>
  <path class="cls-1" d="M20.83,28.73l.13.91h.79s-.79-4.99-.79-4.99h-1.15s-.81,4.98-.81,4.98h.72s.14-.9.14-.9h.96ZM20.35,25.53l.37,2.52h-.76s.38-2.52.38-2.52Z"/>
  <polygon class="cls-1" points="26 24.66 25.02 24.66 25.01 29.65 25.71 29.65 25.72 26.04 26.69 29.65 27.49 29.65 27.5 24.66 26.8 24.66 26.8 27.65 26 24.66"/>
  <path class="cls-1" d="M41.22,26.37v-.48c0-.4-.1-.71-.3-.93s-.49-.33-.87-.33-.67.11-.87.32c-.2.22-.3.53-.3.93v2.59c0,.4.09.71.29.93.2.22.49.33.87.33s.67-.11.87-.32.3-.53.3-.93v-.66s-.74,0-.74,0v.71c0,.32-.14.48-.41.48s-.41-.16-.41-.49v-2.69c0-.33.14-.49.41-.49s.41.16.4.49v.53s.74,0,.74,0Z"/>
  <polygon class="cls-1" points="45.38 24.7 44.6 24.7 44.59 29.69 46.66 29.69 46.66 28.98 45.37 28.98 45.38 24.7"/>
  <path class="cls-1" d="M51.03,24.66c-.38,0-.68.11-.88.33-.2.22-.31.53-.31.93v2.59c0,.4.1.71.3.93.2.22.5.33.88.33s.68-.11.88-.33c.2-.22.31-.53.31-.93v-2.59c0-.4-.1-.71-.3-.93-.2-.22-.5-.33-.88-.33ZM51.43,28.55c0,.33-.14.49-.41.49s-.41-.16-.41-.49v-2.69c0-.33.14-.49.41-.49s.41.16.4.49v2.69Z"/>
  <polygon class="cls-1" points="56.98 29.71 56.99 25.44 57.81 25.44 57.81 24.73 55.39 24.72 55.39 25.43 56.21 25.44 56.2 29.71 56.98 29.71"/>
  <polygon class="cls-1" points="61.05 24.73 61.04 29.72 61.82 29.72 61.83 27.59 62.72 27.59 62.71 29.73 63.51 29.73 63.52 24.74 62.72 24.74 62.72 26.88 61.83 26.87 61.83 24.74 61.05 24.73"/>
  <rect class="cls-1" x="64.88" y="26.85" width="4.99" height=".78" transform="translate(39.99 94.56) rotate(-89.88)"/>
  <polygon class="cls-1" points="72.9 29.75 73.7 29.75 73.71 24.76 73.01 24.76 73.01 27.74 72.21 24.76 71.22 24.76 71.21 29.74 71.92 29.74 71.93 26.13 72.9 29.75"/>
  <path class="cls-1" d="M79.44,26.45v-.48c0-.4-.1-.71-.3-.93s-.49-.33-.87-.33-.67.11-.87.32c-.2.22-.3.53-.3.93v2.59c0,.4.09.71.29.93.2.22.49.33.87.33s.67-.11.87-.32.3-.53.3-.93v-1.58s-1.09,0-1.09,0v.71s.35,0,.35,0v.92c0,.32-.14.48-.41.48s-.41-.16-.41-.49v-2.69c0-.33.14-.49.41-.49s.41.16.4.49v.53s.74,0,.74,0Z"/>
  <path class="cls-1" d="M33.78,33.88c.3-.52.65-1.25.3-1.39-.44-.18-.53.57-.81,1.05-.32.56-.71,1.2-.71,1.2.47.36.92-.33,1.21-.85Z"/>
  <path class="cls-1" d="M32.28,34.42c.44-.46,1-1.28,1.12-1.5.19-.34.12-.64-.12-.62-.25.02-1.55,1.41-1.55,1.95,0,.26.33.41.55.17Z"/>
  <path class="cls-1" d="M31.45,34.43c.1-.66,1.17-1.82,1.17-1.82-.65-.92-1.69,1.56-1.73,1.82-.03.26.46.66.56,0Z"/>
  <path class="cls-1" d="M30.9,30.95c-.12-.23-.62-.4-.62-.4.06.77.83,2.86.83,2.86.2-.44.43-.61.43-.61-.51-.94-.64-1.85-.64-1.85Z"/>
  <path class="cls-1" d="M34.91,36.92s-.24-1.74-1.02-2.83c0,0-.16.28-.38.53,0,0,.48.64.86,1.86l.54.44Z"/>
  <path class="cls-1" d="M18.37,36.55c-.06-.77-.83-2.86-.83-2.86-.2.44-.43.61-.43.61.51.94.64,1.85.64,1.85.12.23.62.4.62.4Z"/>
  <path class="cls-1" d="M15.14,32.49s-.48-.64-.86-1.86l-.54-.44s.24,1.74,1.02,2.83c0,0,.16-.28.38-.53Z"/>
  <path class="cls-1" d="M14.62,34.52c.44.18.47-.47.75-.95.32-.56.71-1.2.71-1.2-.47-.36-.92.33-1.21.85s-.6,1.15-.24,1.29Z"/>
  <path class="cls-1" d="M16.92,32.85c0-.26-.33-.41-.55-.17-.44.46-1,1.28-1.12,1.5-.19.34-.12.64.12.62s1.55-1.41,1.55-1.95Z"/>
  <path class="cls-1" d="M17.19,32.67c-.1.66-1.17,1.82-1.17,1.82.65.92,1.69-1.56,1.73-1.82.03-.26-.46-.66-.56,0Z"/>
  <path class="cls-1" d="M47.77,33.49c-.3.52-.65,1.25-.3,1.39.44.18.53-.57.81-1.05.32-.56.71-1.2.71-1.2-.47-.36-.92.33-1.21.85Z"/>
  <path class="cls-1" d="M49.27,32.95c-.44.46-1,1.28-1.12,1.5-.19.34-.12.64.12.62.25-.02,1.55-1.41,1.55-1.95,0-.26-.33-.41-.55-.17Z"/>
  <path class="cls-1" d="M50.66,32.94c.03-.26-.46-.66-.56,0-.1.66-1.17,1.82-1.17,1.82.65.92,1.69-1.56,1.73-1.82Z"/>
  <path class="cls-1" d="M50.01,34.57c.51.94.64,1.85.64,1.85.12.23.62.4.62.4-.06-.77-.83-2.86-.83-2.86-.2.44-.43.61-.43.61Z"/>
  <path class="cls-1" d="M47.66,33.29s.16-.28.38-.53c0,0-.48-.64-.86-1.86l-.54-.44s.24,1.74,1.02,2.83Z"/>
  <path class="cls-1" d="M17.61,33.57c8.49-.73,13.18.46,13.22.47l.2-.5c-.19-.05-4.69-1.31-13.28-.57l-.14.6Z"/>
  <path class="cls-1" d="M14.53,33.26c-.19-.05-4.69-1.31-13.28-.57l-.14.6c8.49-.73,13.18.46,13.22.47l.2-.5Z"/>
  <path class="cls-1" d="M47.28,34.07l.3-.62c-8.47.93-13.3-.13-13.35-.14l-.19.56c.13.03,2.4.55,6.61.56,1.89,0,3.97-.07,6.63-.36Z"/>
  <path class="cls-1" d="M82.31,34.83s-.38-.64-.7-1.2c-.27-.48-.36-1.23-.8-1.05-.36.15,0,.87.29,1.4.29.53.74,1.22,1.21.86Z"/>
  <path class="cls-1" d="M81.61,32.4c-.25-.02-.32.28-.13.62.12.22.67,1.04,1.12,1.5.22.23.55.09.55-.17,0-.54-1.3-1.94-1.54-1.96Z"/>
  <path class="cls-1" d="M83.99,34.54c-.03-.26-1.06-2.74-1.72-1.83,0,0,1.07,1.17,1.16,1.82.1.66.59.26.56,0Z"/>
  <path class="cls-1" d="M84,31.06s-.13.92-.64,1.85c0,0,.23.18.42.62,0,0,.78-2.09.84-2.86,0,0-.51.16-.62.39Z"/>
  <path class="cls-1" d="M81,34.18c-.78,1.09-1.03,2.83-1.03,2.83l.54-.44c.38-1.21.87-1.85.87-1.85-.22-.25-.38-.53-.38-.53Z"/>
  <path class="cls-1" d="M97.77,34.46s-.23-.18-.42-.62c0,0-.78,2.09-.84,2.86,0,0,.51-.16.62-.39,0,0,.13-.92.64-1.85Z"/>
  <path class="cls-1" d="M100.62,30.81c-.38,1.21-.87,1.85-.87,1.85.22.25.38.53.38.53.78-1.09,1.03-2.83,1.03-2.83l-.54.44Z"/>
  <path class="cls-1" d="M100.31,34.79c.36-.15,0-.87-.29-1.4-.29-.53-.74-1.22-1.21-.86,0,0,.39.64.7,1.2.27.48.36,1.23.8,1.05Z"/>
  <path class="cls-1" d="M97.97,33.02c0,.54,1.3,1.94,1.54,1.96.25.02.32-.28.13-.62-.12-.22-.67-1.04-1.11-1.5-.22-.23-.55-.09-.55.17Z"/>
  <path class="cls-1" d="M97.13,32.83c.03.26,1.06,2.74,1.72,1.83,0,0-1.07-1.17-1.16-1.82-.1-.66-.59-.26-.56,0Z"/>
  <path class="cls-1" d="M65.91,32.67s.39.64.7,1.2c.27.48.36,1.23.8,1.05.36-.15,0-.87-.29-1.4s-.74-1.22-1.21-.86Z"/>
  <path class="cls-1" d="M65.06,33.15c0,.54,1.3,1.94,1.54,1.96s.32-.28.13-.62c-.12-.22-.67-1.04-1.12-1.5-.22-.23-.55-.09-.55.17Z"/>
  <path class="cls-1" d="M64.23,32.96c.03.26,1.06,2.74,1.72,1.83,0,0-1.07-1.17-1.16-1.82-.1-.66-.59-.26-.56,0Z"/>
  <path class="cls-1" d="M64.22,36.44s.13-.92.64-1.85c0,0-.23-.18-.42-.62,0,0-.78,2.09-.84,2.86,0,0,.51-.16.62-.39Z"/>
  <path class="cls-1" d="M67.22,33.32c.78-1.09,1.03-2.83,1.03-2.83l-.54.44c-.38,1.21-.87,1.85-.87,1.85.22.25.38.53.38.53Z"/>
  <path class="cls-1" d="M84.05,34.14s4.74-1.18,13.23-.41l-.14-.61c-8.59-.77-13.09.47-13.28.52l.2.5Z"/>
  <path class="cls-1" d="M100.35,33.44l.2.5s4.74-1.18,13.23-.41l-.14-.61c-8.59-.77-13.09.47-13.28.52Z"/>
  <path class="cls-1" d="M67.6,34.11c2.65.3,4.74.39,6.63.39,4.21,0,6.48-.5,6.61-.53l-.19-.56s-4.88,1.05-13.35.09l.3.62Z"/>
  <path class="cls-1" d="M51.08,33.97c2.65.3,4.74.39,6.63.39,4.21,0,6.48-.5,6.61-.53l-.19-.56s-4.88,1.05-13.35.08l.3.62Z"/>
  <path class="cls-1" d="M91.83,27.1c-.1.13-.24.29-.41.49-.17.18-.31.35-.41.48-.1.14-.19.3-.26.48s-.11.39-.11.62v.61s2.26,0,2.26,0v-.71s-1.48,0-1.48,0c0-.02,0-.06,0-.11,0-.15.05-.3.14-.44s.25-.33.45-.55c.2-.22.37-.42.5-.59.13-.17.24-.37.33-.61.09-.23.14-.49.14-.77,0-.4-.1-.71-.3-.93-.2-.22-.49-.33-.87-.33s-.67.11-.87.32c-.2.22-.3.53-.3.93v.48s.74,0,.74,0v-.53c0-.33.14-.49.41-.49.13,0,.23.04.3.13.07.08.1.23.1.45s-.04.43-.1.61c-.07.18-.15.34-.25.47Z"/>
  <path class="cls-1" d="M98.77,24.76c-.38,0-.68.11-.88.33-.2.22-.31.53-.31.93v2.59c0,.4.1.71.3.93.2.22.5.33.88.33s.68-.11.88-.33c.2-.22.31-.53.31-.93v-2.59c0-.4-.1-.71-.3-.93-.2-.22-.5-.33-.88-.33ZM99.17,28.65c0,.33-.14.49-.41.49s-.41-.16-.41-.49v-2.69c0-.33.14-.49.41-.49s.41.16.4.49v2.69Z"/>
  <path class="cls-1" d="M105.84,27.13c-.1.13-.24.29-.41.49-.17.18-.31.35-.41.48-.1.14-.19.3-.26.48s-.11.39-.11.62v.61s2.26,0,2.26,0v-.71s-1.48,0-1.48,0c0-.02,0-.06,0-.11,0-.15.05-.3.14-.44s.25-.33.45-.55c.2-.22.37-.42.5-.59.13-.17.24-.37.33-.61.09-.23.14-.49.14-.77,0-.4-.1-.71-.3-.93-.2-.22-.49-.33-.87-.33s-.67.11-.87.32c-.2.22-.3.53-.3.93v.48s.74,0,.74,0v-.53c0-.33.14-.49.41-.49.13,0,.23.04.3.13.07.08.1.23.1.45s-.04.43-.1.61c-.07.18-.15.34-.25.47Z"/>
  <path class="cls-1" d="M112.78,24.78c-.38,0-.68.11-.88.33-.2.22-.31.53-.31.93v2.59c0,.4.1.71.3.93.2.22.5.33.88.33s.68-.11.88-.33c.2-.22.31-.53.31-.93v-2.59c0-.4-.1-.71-.3-.93-.2-.22-.5-.33-.88-.33ZM113.18,28.68c0,.33-.14.49-.41.49s-.41-.16-.41-.49v-2.69c0-.33.14-.49.41-.49s.41.16.4.49v2.69Z"/>
</svg>